<svg width="17" height="11" viewBox="0 0 17 11" fill="none" xmlns="http://www.w3.org/2000/svg">
<path d="M4.81934 6.91016V0.046875H7.03418V6.91016C7.03418 7.57552 6.88379 8.14974 6.58301 8.63281C6.28678 9.11133 5.88346 9.48275 5.37305 9.74707C4.86719 10.0068 4.29525 10.1367 3.65723 10.1367C3.00098 10.1367 2.41764 10.0273 1.90723 9.80859C1.39681 9.58529 0.995768 9.24577 0.704102 8.79004C0.416992 8.32975 0.273438 7.74414 0.273438 7.0332H2.50195C2.50195 7.38411 2.54525 7.66211 2.63184 7.86719C2.72298 8.06771 2.85514 8.20898 3.02832 8.29102C3.2015 8.37305 3.41113 8.41406 3.65723 8.41406C3.89421 8.41406 4.09928 8.3571 4.27246 8.24316C4.44564 8.12467 4.58008 7.95378 4.67578 7.73047C4.77148 7.5026 4.81934 7.22917 4.81934 6.91016Z" fill="#CD5EF7"/>
<path d="M15 7H17V9H15V7Z" fill="#CD5EF7"/>
<path d="M7.71729 4.51514V4.64844C7.71729 5.14779 7.78076 5.61117 7.90771 6.03857C8.0389 6.46175 8.2251 6.8278 8.46631 7.13672C8.70752 7.44564 8.9974 7.68896 9.33594 7.8667C9.67871 8.0402 10.0638 8.12695 10.4912 8.12695C10.707 8.12695 10.908 8.10368 11.0942 8.05713C11.2847 8.01058 11.4582 7.94499 11.6147 7.86035C11.7205 7.80111 11.82 7.7334 11.9131 7.65723C12.0062 7.58105 12.0951 7.49642 12.1797 7.40332V7.79688C12.1797 8.02962 12.1458 8.2391 12.0781 8.42529C12.0146 8.61149 11.9215 8.76807 11.7988 8.89502C11.6634 9.03467 11.4941 9.14046 11.291 9.2124C11.0921 9.28434 10.8636 9.32031 10.6055 9.32031C10.4447 9.32031 10.2881 9.30339 10.1357 9.26953C9.98763 9.23991 9.84375 9.19336 9.7041 9.12988C9.56022 9.06641 9.42269 8.98389 9.2915 8.88232C9.16032 8.78499 9.0376 8.67074 8.92334 8.53955L8.12988 9.6123C8.27799 9.80273 8.45573 9.96566 8.66309 10.1011C8.87044 10.2407 9.09049 10.355 9.32324 10.4438C9.55599 10.5327 9.79085 10.5983 10.0278 10.6406C10.2648 10.6829 10.487 10.7041 10.6943 10.7041C11.1768 10.7041 11.6169 10.6385 12.0146 10.5073C12.4167 10.3804 12.7616 10.1921 13.0493 9.94238C13.3328 9.69271 13.5529 9.3859 13.7095 9.02197C13.8703 8.65804 13.9507 8.24333 13.9507 7.77783V1.13184H12.3447L12.2749 1.78564C12.1903 1.67985 12.0972 1.58464 11.9956 1.5C11.894 1.41113 11.784 1.33496 11.6655 1.27148C11.509 1.18262 11.3333 1.11702 11.1387 1.07471C10.9482 1.02816 10.7367 1.00488 10.5039 1.00488C10.0723 1.00488 9.68506 1.08952 9.34229 1.25879C8.99951 1.42806 8.70752 1.66715 8.46631 1.97607C8.2251 2.28499 8.0389 2.65527 7.90771 3.08691C7.78076 3.51855 7.71729 3.99463 7.71729 4.51514ZM9.48828 4.64844V4.51514C9.48828 4.22738 9.5179 3.95866 9.57715 3.70898C9.63639 3.45508 9.72738 3.23291 9.8501 3.04248C9.96859 2.85628 10.1188 2.71029 10.3008 2.60449C10.4827 2.49447 10.6986 2.43945 10.9482 2.43945C11.0837 2.43945 11.2085 2.45215 11.3228 2.47754C11.4412 2.50293 11.5492 2.5389 11.6465 2.58545C11.7607 2.64046 11.8623 2.7124 11.9512 2.80127C12.04 2.89014 12.1162 2.99382 12.1797 3.1123V6.01953C12.1204 6.12533 12.0506 6.22054 11.9702 6.30518C11.8898 6.38981 11.7967 6.46175 11.6909 6.521C11.5894 6.57601 11.4751 6.61833 11.3481 6.64795C11.2254 6.67757 11.0879 6.69238 10.9355 6.69238C10.6859 6.69238 10.4701 6.63949 10.2881 6.53369C10.1061 6.4279 9.95589 6.2819 9.8374 6.0957C9.71891 5.91374 9.63005 5.70003 9.5708 5.45459C9.51579 5.20492 9.48828 4.9362 9.48828 4.64844Z" fill="#CD5EF7"/>
</svg>
